<svg width="32" height="32" viewBox="0 0 32 32" fill="none" xmlns="http://www.w3.org/2000/svg">
  <rect width="32" height="32" rx="8" fill="#1a1a2e"/>
  <!-- Book shape -->
  <path d="M7 8C7 7.448 7.448 7 8 7H15V25H8C7.448 25 7 24.552 7 24V8Z" fill="#e8855a" opacity="0.9"/>
  <path d="M17 7H24C24.552 7 25 7.448 25 8V24C25 24.552 24.552 25 24 25H17V7Z" fill="#e8855a" opacity="0.6"/>
  <rect x="15" y="7" width="2" height="18" fill="#1a1a2e" opacity="0.4"/>
  <!-- AI spark on top right -->
  <circle cx="24" cy="10" r="5" fill="#1a1a2e"/>
  <circle cx="24" cy="10" r="4" fill="#7990f8"/>
  <path d="M24 7.5L24.6 9.4L26.5 10L24.6 10.6L24 12.5L23.4 10.6L21.5 10L23.4 9.4L24 7.5Z" fill="white" opacity="0.95"/>
</svg>
